<?xml version="1.0" encoding="UTF-8"?>
<svg xmlns="http://www.w3.org/2000/svg" xmlns:xlink="http://www.w3.org/1999/xlink" width="3890px" height="3890px" viewBox="0 0 3890 3890" version="1.1">
<g id="surface1">
<path style=" stroke:none;fill-rule:nonzero;fill:rgb(80%,80%,80%);fill-opacity:1;" d="M 2889.390625 11.390625 L 2887.351562 4.085938 C 2886.339844 2.273438 2885.320312 0.425781 2883.289062 0.425781 L 2879.210938 2.273438 C 2877.179688 5.917969 2876.160156 7.746094 2876.160156 11.390625 L 2789.640625 2821.855469 L 2802.878906 2818.203125 L 2886.339844 84.253906 L 2986.089844 378.300781 L 2985.070312 378.300781 C 3060.390625 776.417969 3091.941406 1200.117188 3079.730469 1649.390625 L 3085.839844 1665.824219 L 3184.570312 1979.929688 L 3190.671875 1990.894531 C 3342.328125 2230.136719 3512.300781 2390.851562 3700.609375 2473.03125 L 3746.410156 2606.359375 L 3752.519531 2610.003906 L 3753.539062 2606.359375 L 2887.351562 64.179688 L 2889.390625 11.210938 "/>
<path style=" stroke:none;fill-rule:nonzero;fill:rgb(80%,80%,80%);fill-opacity:1;" d="M 2858.859375 1003.054688 C 2965.730469 1395.714844 3004.398438 1989.242188 2975.910156 2783.683594 L 3392.199219 2692.363281 Z M 2858.859375 1003.054688 "/>
<path style=" stroke:none;fill-rule:nonzero;fill:rgb(80%,80%,80%);fill-opacity:1;" d="M 3807.480469 2728.886719 C 3850.21875 2719.761719 3877.699219 2703.324219 3889.921875 2679.585938 L 1711.761719 3156.25 L 1710.738281 3156.25 C 1711.761719 3318.785156 1752.46875 3446.628906 1831.859375 3537.933594 C 1853.230469 3565.332031 1875.628906 3585.417969 1895.980469 3598.203125 C 1915.320312 3558.035156 1936.699219 3528.808594 1962.148438 3501.410156 L 1963.160156 3501.410156 C 2191.160156 3253.042969 2530.101562 3214.683594 2977.941406 3384.535156 L 2983.03125 3386.351562 C 3031.890625 3404.617188 3080.738281 3426.539062 3126.550781 3452.101562 C 3139.769531 3455.753906 3150.96875 3448.449219 3160.128906 3433.835938 C 3176.421875 3411.917969 3196.78125 3395.484375 3224.261719 3384.535156 L 3224.261719 3382.707031 C 3296.53125 3152.589844 3394.230469 2982.75 3516.378906 2871.34375 C 3600.859375 2796.472656 3698.570312 2747.152344 3807.480469 2728.886719 "/>
<path style=" stroke:none;fill-rule:nonzero;fill:rgb(80%,80%,80%);fill-opacity:1;" d="M 2761.148438 2800.128906 L 2860.890625 57.054688 C 2716.359375 1057.851562 2484.289062 1992.902344 2165.710938 2860.382812 L 2761.148438 2800.128906 "/>
<path style=" stroke:none;fill-rule:nonzero;fill:rgb(80%,80%,80%);fill-opacity:1;" d="M 2200.320312 590.332031 L 2196.25 586.671875 L 2192.179688 588.503906 L 2190.140625 597.617188 L 2107.699219 2971.789062 L 2119.910156 2969.960938 L 2202.359375 597.617188 L 2200.320312 590.332031 "/>
<path style=" stroke:none;fill-rule:nonzero;fill:rgb(80%,80%,80%);fill-opacity:1;" d="M 2084.289062 2920.652344 L 2171.820312 604.9375 L 1710.738281 2991.882812 L 2084.289062 2920.652344 "/>
<path style="fill:none;stroke-width:12;stroke-linecap:round;stroke-linejoin:round;stroke:rgb(80%,80%,80%);stroke-opacity:1;stroke-miterlimit:4;" d="M 2102.609375 2057.954145 C 1987.589844 2112.913938 1904.128906 2122.074992 1851.199219 2088.491718 C 1798.269531 2052.866364 1716.839844 2061.006379 1606.921875 2112.913938 " transform="matrix(1,0,0,1.79428,0,0)"/>
<path style="fill:none;stroke-width:12;stroke-linecap:round;stroke-linejoin:round;stroke:rgb(80%,80%,80%);stroke-opacity:1;stroke-miterlimit:4;" d="M 2372.328125 2066.091983 C 2350.960938 2058.968654 2327.550781 2053.883049 2303.121094 2051.843147 C 2253.25 2047.776406 2193.191406 2067.113022 2122.960938 2108.847196 C 2052.730469 2151.593702 1968.25 2167.882439 1867.480469 2158.719208 " transform="matrix(1,0,0,1.79428,0,0)"/>
<path style="fill:none;stroke-width:12;stroke-linecap:round;stroke-linejoin:round;stroke:rgb(80%,80%,80%);stroke-opacity:1;stroke-miterlimit:4;" d="M 3000.339844 1962.27251 C 2515.839844 1862.530664 2166.730469 1885.936199 1952.988281 2033.523217 " transform="matrix(1,0,0,1.79428,0,0)"/>
<path style="fill:none;stroke-width:12;stroke-linecap:round;stroke-linejoin:round;stroke:rgb(80%,80%,80%);stroke-opacity:1;stroke-miterlimit:4;" d="M 3305.691406 2010.117682 C 3284.308594 2001.971136 3260.898438 1996.881178 3236.46875 1995.862315 C 3186.601562 1991.795574 3126.550781 2011.13219 3056.320312 2052.866364 C 2986.089844 2094.594007 2901.609375 2110.87839 2800.839844 2102.738376 " transform="matrix(1,0,0,1.79428,0,0)"/>
<path style="fill:none;stroke-width:29;stroke-linecap:round;stroke-linejoin:round;stroke:rgb(80%,80%,80%);stroke-opacity:1;stroke-miterlimit:4;" d="M 2655.289062 341.218782 C 2605.410156 310.679033 2553.511719 318.827755 2499.558594 366.657688 C 2452.738281 318.827755 2403.890625 310.679033 2352.988281 341.218782 " transform="matrix(1,0,0,1.79428,0,0)"/>
<path style="fill:none;stroke-width:29;stroke-linecap:round;stroke-linejoin:round;stroke:rgb(80%,80%,80%);stroke-opacity:1;stroke-miterlimit:4;" d="M 2542.308594 170.217521 C 2491.421875 139.688657 2441.550781 151.89759 2390.648438 206.857383 C 2340.769531 151.89759 2289.890625 139.688657 2238.988281 170.217521 " transform="matrix(1,0,0,1.79428,0,0)"/>
<path style=" stroke:none;fill-rule:nonzero;fill:rgb(42.352941%,47.058824%,68.627451%);fill-opacity:1;" d="M 56.769531 3164.859375 L 191.683594 3164.859375 C 232.222656 3164.859375 261.988281 3185.566406 280.988281 3226.96875 C 299.980469 3268.382812 306.140625 3326.089844 299.472656 3400.09375 C 296.738281 3430.457031 291.859375 3458.320312 284.835938 3483.695312 C 277.808594 3509.074219 268.527344 3532.261719 256.988281 3553.238281 C 243.273438 3578.480469 227.917969 3596.566406 210.910156 3607.480469 C 193.910156 3618.394531 172.164062 3623.851562 145.679688 3623.851562 L 85.589844 3623.851562 L 70.636719 3789.847656 L 0.472656 3789.847656 Z M 118.023438 3263.734375 L 94.410156 3525.882812 L 137.085938 3525.882812 C 165.371094 3525.882812 186.335938 3515.523438 199.984375 3494.773438 C 213.625 3474.023438 222.621094 3439.496094 226.972656 3391.179688 C 231.171875 3344.585938 228.730469 3311.703125 219.675781 3292.507812 C 210.613281 3273.328125 192.753906 3263.734375 166.097656 3263.734375 L 118.023438 3263.734375 "/>
<path style=" stroke:none;fill-rule:nonzero;fill:rgb(42.352941%,47.058824%,68.627451%);fill-opacity:1;" d="M 378.242188 2998.863281 L 447.878906 2998.863281 L 432.925781 3164.859375 L 494.875 3164.859375 C 533.863281 3164.859375 560.886719 3178.121094 575.949219 3204.617188 C 591.019531 3231.128906 595.902344 3273.839844 590.59375 3332.785156 L 564.375 3623.851562 L 493.683594 3623.851562 L 518.636719 3346.832031 C 521.480469 3315.339844 520.101562 3293.921875 514.511719 3282.570312 C 508.925781 3271.230469 497.230469 3265.546875 479.445312 3265.546875 L 423.867188 3265.546875 L 391.589844 3623.851562 L 321.945312 3623.851562 L 378.242188 2998.863281 "/>
<path style=" stroke:none;fill-rule:nonzero;fill:rgb(42.352941%,47.058824%,68.627451%);fill-opacity:1;" d="M 666.4375 3164.859375 L 801.351562 3164.859375 C 841.898438 3164.859375 871.65625 3185.566406 890.65625 3226.96875 C 909.648438 3268.382812 915.808594 3326.089844 909.144531 3400.09375 C 906.410156 3430.457031 901.527344 3458.320312 894.511719 3483.695312 C 887.476562 3509.074219 878.1875 3532.261719 866.660156 3553.238281 C 852.9375 3578.480469 837.582031 3596.566406 820.578125 3607.480469 C 803.578125 3618.394531 781.835938 3623.851562 755.34375 3623.851562 L 695.257812 3623.851562 L 680.308594 3789.847656 L 610.148438 3789.847656 Z M 727.699219 3263.734375 L 704.085938 3525.882812 L 746.761719 3525.882812 C 775.046875 3525.882812 796.007812 3515.523438 809.648438 3494.773438 C 823.289062 3474.023438 832.289062 3439.496094 836.644531 3391.179688 C 840.839844 3344.585938 838.402344 3311.703125 829.339844 3292.507812 C 820.277344 3273.328125 802.421875 3263.734375 775.773438 3263.734375 L 727.699219 3263.734375 "/>
<path style=" stroke:none;fill-rule:nonzero;fill:rgb(97.254902%,61.176471%,5.490196%);fill-opacity:1;" d="M 1027.75 2866.046875 L 1162.695312 2866.046875 L 1221.976562 3447.160156 L 1385.949219 2866.046875 L 1520.382812 2866.046875 L 1452.179688 3623.332031 L 1362.085938 3623.332031 L 1422.648438 3033.472656 L 1257.3125 3623.332031 L 1159.683594 3623.332031 L 1097.589844 3027.292969 L 1053.121094 3623.332031 L 959.539062 3623.332031 L 1027.75 2866.046875 "/>
<path style=" stroke:none;fill-rule:nonzero;fill:rgb(97.254902%,61.176471%,5.490196%);fill-opacity:1;" d="M 1682.335938 3500.78125 L 1750.464844 3500.78125 L 1789.511719 3067.183594 L 1874.207031 3067.183594 L 1825.457031 3608.402344 C 1818.839844 3681.980469 1804.015625 3736.480469 1781.007812 3771.902344 C 1757.996094 3807.304688 1726.078125 3825.019531 1685.257812 3825.019531 L 1519.179688 3825.019531 L 1529.332031 3712.359375 L 1680.828125 3712.359375 C 1697.085938 3712.359375 1710.195312 3705.542969 1720.152344 3691.921875 C 1730.09375 3678.28125 1736.25 3658.53125 1738.578125 3632.652344 L 1739.421875 3623.332031 L 1664.457031 3623.332031 C 1616.507812 3623.332031 1583.804688 3606.933594 1566.363281 3574.128906 C 1548.910156 3541.332031 1543.648438 3486.632812 1550.535156 3410.039062 L 1581.425781 3067.183594 L 1665.164062 3067.183594 L 1635.300781 3398.703125 C 1631.523438 3440.640625 1632.65625 3468.136719 1638.734375 3481.195312 C 1644.796875 3494.253906 1659.328125 3500.78125 1682.335938 3500.78125 "/>
<path style=" stroke:none;fill-rule:nonzero;fill:rgb(97.254902%,61.176471%,5.490196%);fill-opacity:1;" d="M 2102.304688 2866.046875 L 2199.824219 2866.046875 L 2318.011719 3623.332031 L 2215.738281 3623.332031 L 2191.832031 3443.078125 L 2001.875 3443.078125 L 1946.6875 3623.332031 L 1849.15625 3623.332031 Z M 2133.957031 3016.417969 L 2043.773438 3307.890625 L 2173.992188 3307.890625 L 2133.957031 3016.417969 "/>
<path style=" stroke:none;fill-rule:nonzero;fill:rgb(97.254902%,61.176471%,5.490196%);fill-opacity:1;" d="M 2637.304688 3623.332031 L 2474.605469 3623.332031 C 2425.441406 3623.332031 2389.339844 3598.25 2366.289062 3548.078125 C 2343.246094 3497.914062 2335.78125 3427.984375 2343.855469 3338.304688 C 2347.171875 3301.535156 2353.085938 3267.773438 2361.605469 3237.023438 C 2370.128906 3206.265625 2381.378906 3178.175781 2395.367188 3152.742188 C 2411.996094 3122.167969 2430.675781 3100.261719 2451.398438 3087.03125 C 2472.117188 3073.796875 2498.441406 3067.183594 2530.355469 3067.183594 L 2603.019531 3067.183594 L 2621.132812 2866.046875 L 2705.519531 2866.046875 Z M 2563.664062 3504.078125 L 2592.234375 3186.988281 L 2541.011719 3186.988281 C 2506.660156 3186.988281 2481.171875 3199.457031 2464.527344 3224.367188 C 2447.902344 3249.292969 2436.953125 3290.800781 2431.722656 3348.882812 C 2426.644531 3405.261719 2429.644531 3445.21875 2440.730469 3468.761719 C 2451.8125 3492.308594 2473.433594 3504.078125 2505.59375 3504.078125 L 2563.664062 3504.078125 "/>
<path style=" stroke:none;fill-rule:nonzero;fill:rgb(97.254902%,61.176471%,5.490196%);fill-opacity:1;" d="M 2761.023438 3067.183594 L 3086.257812 3067.183594 C 3133.410156 3067.183594 3165.957031 3083.164062 3183.882812 3115.089844 C 3201.796875 3147.03125 3207.53125 3198.886719 3201.074219 3270.65625 L 3169.300781 3623.332031 L 3083.96875 3623.332031 L 3114.015625 3289.730469 C 3117.703125 3248.828125 3116.574219 3221.851562 3110.628906 3208.78125 C 3104.664062 3195.722656 3090.613281 3189.183594 3068.449219 3189.183594 L 3020.941406 3189.183594 L 2981.832031 3623.332031 L 2895.226562 3623.332031 L 2934.335938 3189.183594 L 2835.359375 3189.183594 L 2796.25 3623.332031 L 2710.921875 3623.332031 L 2761.023438 3067.183594 "/>
<path style=" stroke:none;fill-rule:nonzero;fill:rgb(97.254902%,61.176471%,5.490196%);fill-opacity:1;" d="M 3389.652344 3003.984375 L 3300.832031 3003.984375 L 3313.253906 2866.046875 L 3402.074219 2866.046875 Z M 3333.859375 3623.332031 L 3245.039062 3623.332031 L 3295.128906 3067.183594 L 3383.949219 3067.183594 L 3333.859375 3623.332031 "/>
<path style=" stroke:none;fill-rule:nonzero;fill:rgb(97.254902%,61.176471%,5.490196%);fill-opacity:1;" d="M 3457.210938 3067.183594 L 3616.5625 3067.183594 C 3664.722656 3067.183594 3697.699219 3082.910156 3715.472656 3114.320312 C 3733.253906 3145.746094 3738.867188 3197.859375 3732.308594 3270.65625 L 3700.550781 3623.332031 L 3615.84375 3623.332031 L 3646 3288.699219 C 3649.738281 3247.105469 3648.449219 3220.125 3642.125 3207.757812 C 3635.800781 3195.378906 3621.433594 3189.183594 3599.039062 3189.183594 L 3530.921875 3189.183594 L 3491.8125 3623.332031 L 3407.121094 3623.332031 L 3457.210938 3067.183594 "/>
</g>
</svg>
